<svg width="1200" height="800" viewBox="0 0 1200 800" fill="none" xmlns="http://www.w3.org/2000/svg" role="img" aria-label="Cerveja gelada (long neck)">
  <defs>
    <linearGradient id="bg2" x1="0" y1="0" x2="1200" y2="800" gradientUnits="userSpaceOnUse">
      <stop stop-color="#0B1220"/>
      <stop offset="0.6" stop-color="#111827"/>
      <stop offset="1" stop-color="#7C2D12"/>
    </linearGradient>
    <radialGradient id="warmGlow" cx="0" cy="0" r="1" gradientUnits="userSpaceOnUse" gradientTransform="translate(360 220) rotate(68) scale(520 520)">
      <stop stop-color="#F59E0B" stop-opacity="0.38"/>
      <stop offset="1" stop-color="#F59E0B" stop-opacity="0"/>
    </radialGradient>
    <linearGradient id="glass" x1="540" y1="150" x2="700" y2="710" gradientUnits="userSpaceOnUse">
      <stop stop-color="#111827"/>
      <stop offset="0.2" stop-color="#1F2937"/>
      <stop offset="0.55" stop-color="#0F172A"/>
      <stop offset="1" stop-color="#111827"/>
    </linearGradient>
    <linearGradient id="beer" x1="520" y1="330" x2="700" y2="710" gradientUnits="userSpaceOnUse">
      <stop stop-color="#FBBF24"/>
      <stop offset="0.55" stop-color="#F59E0B"/>
      <stop offset="1" stop-color="#B45309"/>
    </linearGradient>
    <linearGradient id="shine2" x1="560" y1="180" x2="610" y2="720" gradientUnits="userSpaceOnUse">
      <stop stop-color="#FFFFFF" stop-opacity="0.75"/>
      <stop offset="0.28" stop-color="#FFFFFF" stop-opacity="0.22"/>
      <stop offset="1" stop-color="#FFFFFF" stop-opacity="0"/>
    </linearGradient>
    <filter id="shadow2" x="430" y="110" width="420" height="660" filterUnits="userSpaceOnUse" color-interpolation-filters="sRGB">
      <feDropShadow dx="0" dy="26" stdDeviation="18" flood-color="#000000" flood-opacity="0.4"/>
    </filter>
  </defs>

  <rect width="1200" height="800" rx="56" fill="url(#bg2)"/>
  <rect width="1200" height="800" rx="56" fill="url(#warmGlow)"/>

  <g filter="url(#shadow2)">
    <path d="M585 120C585 104.536 597.536 92 613 92H624C639.464 92 652 104.536 652 120V210C652 235.405 637.405 255 612 255C586.595 255 572 235.405 572 210V120Z" fill="url(#glass)"/>
    <path d="M582 166H652V210C652 232.091 636.091 250 614 250C591.909 250 576 232.091 576 210V166H582Z" fill="#0B1220" opacity="0.55"/>

    <path d="M520 250C520 220.52 543.52 197 573 197H651C680.48 197 704 220.52 704 250V642C704 692.258 663.258 733 613 733C562.742 733 522 692.258 522 642V250H520Z" fill="url(#glass)"/>
    <path d="M540 284C540 260.804 558.804 242 582 242H644C667.196 242 686 260.804 686 284V636C686 670.242 658.242 698 624 698H602C567.758 698 540 670.242 540 636V284Z" fill="url(#beer)" opacity="0.9"/>

    <rect x="548" y="430" width="130" height="140" rx="26" fill="#F8FAFC" opacity="0.92"/>
    <path d="M568 520C588 472 638 472 658 520C670 548 656 580 626 594C595 608 571 588 566 564C562 548 561 534 568 520Z" fill="#111827" opacity="0.13"/>
    <rect x="556" y="444" width="114" height="18" rx="9" fill="#111827" opacity="0.14"/>
    <rect x="556" y="474" width="96" height="14" rx="7" fill="#111827" opacity="0.12"/>

    <rect x="560" y="206" width="50" height="520" rx="25" fill="url(#shine2)" opacity="0.5"/>
    <path d="M584 92H652V128H584C574.611 128 567 120.389 567 111C567 101.611 574.611 92 584 92Z" fill="#FFFFFF" opacity="0.08"/>
  </g>

  <ellipse cx="613" cy="752" rx="210" ry="30" fill="#000000" opacity="0.24"/>
</svg>

