<svg width="1200" height="800" viewBox="0 0 1200 800" fill="none" xmlns="http://www.w3.org/2000/svg" role="img" aria-label="Promocao Black and White com Night Power e gelo">
  <defs>
    <linearGradient id="bw-bg" x1="88" y1="56" x2="1118" y2="768" gradientUnits="userSpaceOnUse">
      <stop stop-color="#F8FAFC"/>
      <stop offset="0.45" stop-color="#E2E8F0"/>
      <stop offset="1" stop-color="#CBD5E1"/>
    </linearGradient>
    <radialGradient id="bw-halo" cx="0" cy="0" r="1" gradientUnits="userSpaceOnUse" gradientTransform="translate(618 306) rotate(90) scale(290 328)">
      <stop stop-color="#1D4ED8" stop-opacity="0.85"/>
      <stop offset="0.72" stop-color="#1E3A8A" stop-opacity="0.92"/>
      <stop offset="1" stop-color="#1E293B"/>
    </radialGradient>
    <linearGradient id="bw-ice" x1="262" y1="96" x2="950" y2="706" gradientUnits="userSpaceOnUse">
      <stop stop-color="#F8FAFC" stop-opacity="0.95"/>
      <stop offset="0.42" stop-color="#BFDBFE" stop-opacity="0.8"/>
      <stop offset="1" stop-color="#93C5FD" stop-opacity="0.22"/>
    </linearGradient>
    <linearGradient id="bw-glass" x1="0" y1="0" x2="1" y2="1">
      <stop stop-color="#14532D"/>
      <stop offset="0.58" stop-color="#3F6212"/>
      <stop offset="1" stop-color="#365314"/>
    </linearGradient>
    <linearGradient id="bw-label" x1="516" y1="0" x2="516" y2="1">
      <stop stop-color="#FFFFFF"/>
      <stop offset="1" stop-color="#E5E7EB"/>
    </linearGradient>
    <linearGradient id="bw-energy" x1="0" y1="0" x2="1" y2="1">
      <stop stop-color="#111827"/>
      <stop offset="0.55" stop-color="#0F172A"/>
      <stop offset="1" stop-color="#7F1D1D"/>
    </linearGradient>
    <linearGradient id="bw-bottle" x1="0" y1="0" x2="1" y2="1">
      <stop stop-color="#22C55E"/>
      <stop offset="0.6" stop-color="#15803D"/>
      <stop offset="1" stop-color="#166534"/>
    </linearGradient>
    <linearGradient id="bw-cocktail" x1="0" y1="0" x2="1" y2="1">
      <stop stop-color="#ECFCCB"/>
      <stop offset="1" stop-color="#D9F99D"/>
    </linearGradient>
    <linearGradient id="bw-beer" x1="0" y1="0" x2="1" y2="1">
      <stop stop-color="#FBBF24"/>
      <stop offset="1" stop-color="#F59E0B"/>
    </linearGradient>
    <filter id="bw-shadow" x="114" y="70" width="972" height="632" filterUnits="userSpaceOnUse" color-interpolation-filters="sRGB">
      <feDropShadow dx="0" dy="24" stdDeviation="24" flood-color="#0F172A" flood-opacity="0.22"/>
    </filter>
    <filter id="bw-soft-shadow" x="0" y="0" width="1200" height="800" filterUnits="userSpaceOnUse" color-interpolation-filters="sRGB">
      <feDropShadow dx="0" dy="18" stdDeviation="18" flood-color="#0F172A" flood-opacity="0.16"/>
    </filter>
  </defs>

  <rect width="1200" height="800" rx="52" fill="url(#bw-bg)"/>
  <ellipse cx="606" cy="742" rx="370" ry="36" fill="#0F172A" opacity="0.16"/>

  <g opacity="0.7">
    <path d="M314 108C340 64 396 68 410 118C426 66 484 70 496 120C528 90 578 106 576 150C618 120 664 136 664 182C704 152 758 168 760 218" stroke="url(#bw-ice)" stroke-width="20" stroke-linecap="round"/>
    <path d="M838 168C862 124 920 126 938 174C970 148 1020 162 1024 212C1062 184 1106 208 1100 252" stroke="url(#bw-ice)" stroke-width="18" stroke-linecap="round"/>
  </g>

  <g filter="url(#bw-shadow)">
    <circle cx="612" cy="302" r="296" fill="url(#bw-halo)"/>
    <circle cx="612" cy="302" r="296" fill="url(#bw-ice)" opacity="0.18"/>
  </g>

  <g opacity="0.32">
    <path d="M372 130L396 74L438 124" fill="#DBEAFE"/>
    <path d="M454 86L486 26L534 92" fill="#DBEAFE"/>
    <path d="M732 78L766 20L812 90" fill="#DBEAFE"/>
    <path d="M828 100L870 38L914 118" fill="#DBEAFE"/>
    <path d="M954 170L998 106L1034 188" fill="#DBEAFE"/>
  </g>

  <g text-anchor="middle" filter="url(#bw-soft-shadow)">
    <text x="612" y="252" fill="#E0F2FE" font-size="138" font-weight="900" font-family="Arial, sans-serif" letter-spacing="5">
      GELADAO
    </text>
    <text x="612" y="332" fill="#FDE68A" font-size="70" font-weight="800" font-family="Arial, sans-serif" letter-spacing="10">
      DOS
    </text>
    <text x="612" y="430" fill="#FB923C" font-size="116" font-weight="900" font-family="Arial, sans-serif" letter-spacing="4">
      FERNANDES
    </text>
  </g>

  <g transform="translate(140 332)" filter="url(#bw-soft-shadow)">
    <path d="M44 28C44 14.745 54.745 4 68 4H110C123.255 4 134 14.745 134 28V168H44V28Z" fill="#F8FAFC" opacity="0.92"/>
    <rect x="24" y="64" width="40" height="84" rx="18" stroke="#F8FAFC" stroke-width="18"/>
    <path d="M54 56H124V168C124 196.719 100.719 220 72 220C43.2812 220 20 196.719 20 168V94C20 73.0132 37.0132 56 58 56H54Z" fill="url(#bw-beer)"/>
    <path d="M50 44C62 22 102 22 114 44C122 58 120 74 110 88H54C44 74 42 58 50 44Z" fill="#FFFFFF"/>
    <circle cx="72" cy="122" r="10" fill="#FDE68A" opacity="0.65"/>
    <circle cx="100" cy="140" r="8" fill="#FDE68A" opacity="0.42"/>
    <circle cx="84" cy="170" r="7" fill="#FDE68A" opacity="0.38"/>
  </g>

  <g transform="translate(286 430)" filter="url(#bw-soft-shadow)">
    <path d="M0 24C0 10.745 10.745 0 24 0H124L168 176H0V24Z" fill="#1D4ED8" opacity="0.94"/>
    <path d="M22 18H114L150 158H18C8.05888 158 0 149.941 0 140V24C0 10.745 10.745 0 24 0H22Z" fill="#2563EB"/>
    <text x="58" y="120" fill="#E0F2FE" font-size="58" font-weight="800" font-family="Arial, sans-serif" transform="rotate(-90 58 120)">
      GELO
    </text>
    <path d="M102 154L126 120L150 154L122 176L102 154Z" fill="#E0F2FE" opacity="0.78"/>
  </g>

  <g transform="translate(480 206)" filter="url(#bw-soft-shadow)">
    <rect x="66" width="82" height="102" rx="28" fill="#D1D5DB"/>
    <rect x="78" y="12" width="58" height="72" rx="20" fill="#F8FAFC"/>
    <path d="M54 90H160V486C160 551.17 107.17 604 42 604H36C16.1177 604 0 587.882 0 568V148C0 116.967 25.1675 91.8 56.2 91.8L54 90Z" fill="url(#bw-glass)"/>
    <path d="M18 130H176V568C176 594.51 154.51 616 128 616H58C25.9675 616 0 590.033 0 558V148C0 137.954 8.14412 129.8 18.2 129.8L18 130Z" fill="url(#bw-glass)"/>
    <rect x="26" y="220" width="146" height="196" rx="20" fill="url(#bw-label)"/>
    <text x="100" y="296" fill="#111827" font-size="50" font-weight="900" font-family="Georgia, serif" text-anchor="middle">
      B&amp;W
    </text>
    <text x="100" y="340" fill="#334155" font-size="22" font-weight="700" font-family="Arial, sans-serif" text-anchor="middle">
      BLENDED
    </text>
    <text x="100" y="372" fill="#334155" font-size="22" font-weight="700" font-family="Arial, sans-serif" text-anchor="middle">
      WHISKY
    </text>
    <rect x="40" y="432" width="118" height="18" rx="9" fill="#FDE68A" opacity="0.78"/>
    <rect x="30" y="116" width="38" height="440" rx="19" fill="#DCFCE7" opacity="0.18"/>
  </g>

  <g transform="translate(708 200)" filter="url(#bw-soft-shadow)">
    <rect x="40" width="74" height="84" rx="24" fill="#2F1B0A"/>
    <rect x="26" y="74" width="102" height="470" rx="42" fill="url(#bw-energy)"/>
    <path d="M76 172L50 246H86L58 338L130 228H88L110 172H76Z" fill="#F59E0B"/>
    <text x="78" y="390" fill="#FFFFFF" font-size="28" font-weight="900" font-family="Arial, sans-serif" text-anchor="middle">
      NIGHT
    </text>
    <text x="78" y="430" fill="#FFFFFF" font-size="28" font-weight="900" font-family="Arial, sans-serif" text-anchor="middle">
      POWER
    </text>
    <rect x="44" y="488" width="70" height="18" rx="9" fill="#F97316" opacity="0.72"/>
  </g>

  <g transform="translate(920 262)" filter="url(#bw-soft-shadow)">
    <path d="M40 0H76L104 224H14L40 0Z" fill="url(#bw-bottle)"/>
    <rect x="52" y="-30" width="34" height="42" rx="12" fill="#84CC16"/>
    <path d="M18 126C44 106 78 108 102 132V220H14L18 126Z" fill="#D9F99D" opacity="0.3"/>
  </g>

  <g transform="translate(924 434)" filter="url(#bw-soft-shadow)">
    <path d="M26 18H130L112 204H42L26 18Z" fill="#E0F2FE" opacity="0.9"/>
    <path d="M42 46H116L108 164H50L42 46Z" fill="url(#bw-cocktail)"/>
    <ellipse cx="76" cy="108" rx="34" ry="34" fill="#A3E635" opacity="0.88"/>
    <ellipse cx="102" cy="92" rx="32" ry="32" fill="#84CC16" opacity="0.82"/>
    <rect x="94" y="-6" width="8" height="58" rx="4" fill="#EF4444"/>
    <path d="M122 54L170 10" stroke="#84CC16" stroke-width="10" stroke-linecap="round"/>
  </g>

  <g opacity="0.94" filter="url(#bw-soft-shadow)">
    <path d="M486 688L526 634L570 688L532 730L486 688Z" fill="#F8FAFC"/>
    <path d="M552 700L590 650L634 700L594 738L552 700Z" fill="#E0F2FE"/>
    <path d="M620 690L658 644L702 690L660 728L620 690Z" fill="#F8FAFC"/>
    <path d="M686 700L724 650L768 700L726 740L686 700Z" fill="#DBEAFE"/>
  </g>

  <text x="600" y="776" fill="#0F172A" font-size="32" font-weight="800" font-family="Arial, sans-serif" text-anchor="middle">
    O MELHOR DA REGIAO. PECA JA!
  </text>
</svg>
